<?xml version="1.0" encoding="UTF-8"?><svg id="Calque_1" xmlns="http://www.w3.org/2000/svg" viewBox="0 0 499 370.64"><path d="m486.53,102.59C486.53,45.92,443.25,0,389.84,0h-31.19C305.25,0,261.97,45.92,261.97,102.59c0,31.19,13.1,59.07,33.76,77.93-27.76,18.04-46.24,50.47-46.24,87.53,0,56.67,43.27,102.59,96.68,102.59h56.14c53.41,0,96.68-45.92,96.68-102.59,0-37.06-18.48-69.5-46.24-87.53,20.66-18.78,33.76-46.74,33.76-77.93Zm-96.6,102.59h12.4c32.75,0,59.26,28.13,59.26,62.88s-26.51,62.88-59.26,62.88h-56.14c-32.75,0-59.26-28.13-59.26-62.88s26.51-62.88,59.26-62.88h43.74Zm0-39.71h-31.27c-32.75,0-59.26-28.13-59.26-62.88s26.51-62.88,59.26-62.88h31.19c32.75,0,59.26,28.13,59.26,62.88s-26.51,62.88-59.26,62.88h.08Z" stroke-width="0"/><path d="m237.03,102.59C237.03,45.92,193.75,0,140.34,0h-31.19C55.75,0,12.48,45.92,12.48,102.59c0,31.19,13.1,59.07,33.76,77.93C18.48,198.56,0,230.99,0,268.06c0,56.67,43.27,102.59,96.68,102.59h56.14c53.41,0,96.68-45.92,96.68-102.59,0-37.06-18.48-69.5-46.24-87.53,20.66-18.78,33.76-46.74,33.76-77.93Zm-96.6,102.59h12.4c32.75,0,59.26,28.13,59.26,62.88s-26.51,62.88-59.26,62.88h-56.14c-32.75,0-59.26-28.13-59.26-62.88s26.51-62.88,59.26-62.88h43.74Zm0-39.71h-31.27c-32.75,0-59.26-28.13-59.26-62.88s26.51-62.88,59.26-62.88h31.19c32.75,0,59.26,28.13,59.26,62.88s-26.51,62.88-59.26,62.88h.08Z" stroke-width="0"/></svg>