<?xml version="1.0" encoding="UTF-8"?><svg id="Calque_1" xmlns="http://www.w3.org/2000/svg" viewBox="0 0 497.98 500.97"><path d="m272.91,296.12c0,11.5.18,23-.1,34.5-.09,3.86,1.26,5.37,4.8,6.65,35.39,12.81,57.47,46.19,55.72,83.86-1.67,35.92-26.97,67.31-61.96,76.85-44,12-89.68-13.09-102.97-56.56-13.35-43.65,10.14-89.88,53.41-104.55,4.5-1.52,5.73-3.45,5.68-8.01-.25-21.66-.21-43.33-.03-64.99.04-4.14-1.12-6.99-4.18-9.93-31.41-30.33-62.67-60.81-93.83-91.4-3.05-2.99-5.21-3.66-9.33-1.74C61.57,188.01-4.49,142.17.24,77.77,3.31,36,39.17,1.3,80.54.04c44.69-1.35,81.95,29.8,87.66,73.2,2.27,17.21-.42,33.57-8.3,48.98-1.72,3.36-1.67,5.28,1.17,8.02,27.46,26.51,54.74,53.19,82.09,79.81,4.57,4.45,8.32,4.49,12.81.12,27.23-26.5,54.41-53.05,81.72-79.47,2.45-2.37,2.81-4,1.23-7.16-14.47-29.06-13.65-57.88,4.05-85.06C360.66,11.3,386.7-1.32,419.1.18c41.76,1.93,77.26,38.03,78.82,79.61,1.67,44.49-29.91,82.69-72.69,88.19-16.86,2.17-32.89-.22-48.15-7.59-2.55-1.23-4.01-.99-6.01.97-31.81,31.11-63.68,62.16-95.61,93.15-2,1.94-2.62,3.95-2.6,6.61.1,11.66.05,23.33.05,35Z" stroke-width="0"/></svg>