<svg xmlns="http://www.w3.org/2000/svg" viewBox="0 0 916.68 183.3"><path fill="currentColor" d="m2.15,181.02C.02,178.76,0,178.43.03,140.37c.03-32.67.25-38.66,1.53-40.34,1.47-1.94,2.95-1.98,94.2-2.46l92.7-.49,1.89-2.33c2.5-3.07,2.39-4.66-.54-7.57l-2.43-2.42H4.31l-2.15-2.28C.02,80.21,0,79.85,0,42.24V4.29l2.29-2.14L4.59,0h118.36c129.75.03,124.47-.2,136.87,5.92,15.37,7.58,28.03,22.66,31.46,37.47.62,2.68,1.02,21.82,1.02,48.75,0,43.32-.05,44.5-2.22,50.81-3.19,9.31-8.2,17-15.59,23.94-7.78,7.3-16.06,11.85-26.34,14.46-7.41,1.89-11.39,1.95-125.75,1.95H4.31l-2.15-2.28h0Zm299.96.4l-2.34-1.88V45.82l2.6-6.64c3.88-9.91,8.57-17.03,15.5-23.49,7.43-6.94,19.63-13.12,28.97-14.69,4.48-.75,39.88-1,116.44-.79l110,.29,6.68,2.58c15.08,5.83,26.53,15.75,33.05,28.64,6.25,12.35,6.31,13.13,6.33,83.38l.02,63.36-2.43,2.42-2.43,2.42h-88.93l-2.15-2.28c-2.15-2.27-2.16-2.46-2.16-46.19s-.05-43.96-2.05-46.5c-2.51-3.17-6.59-3.42-9.65-.59l-2.17,2.01v89.26l-2.29,2.14c-2.29,2.14-2.45,2.14-47.4,2.14h-45.1l-2.12-2.25c-2.1-2.22-2.13-2.79-2.4-46.9l-.28-44.65-2.34-1.88c-3.02-2.43-6.56-2.4-9.06.09-1.92,1.91-1.98,3.28-1.98,46.19s-.04,44.27-2.05,46.81l-2.05,2.6h-42.93c-40.79,0-43.04-.09-45.27-1.88h0Zm372.75,1.2c-16.93-2.82-34.23-15-41.85-29.47-6.6-12.53-6.71-13.54-6.71-62.15v-43.6l2.47-7.76c4.56-14.34,15.73-26.98,29.83-33.74C671.32-.2,666.08.03,794.86.01h117.51s2.15,2.27,2.15,2.27c2.14,2.26,2.16,2.62,2.16,40.23v37.95l-2.29,2.14-2.29,2.14h-89.31c-54.96,0-90.28.37-91.82.95-4.6,1.74-4.62,8.64-.03,10.73,1.83.83,26.58,1.13,91.97,1.13h89.47l2.15,2.28c2.14,2.26,2.16,2.62,2.16,40.45v38.17l-2.43,2.42-2.43,2.42-117.23-.13c-64.48-.07-118.35-.32-119.71-.55h0Z"/></svg>